<svg class="main-svg" xmlns="http://www.w3.org/2000/svg" xmlns:xlink="http://www.w3.org/1999/xlink" width="700" height="450" style="" viewBox="0 0 700 450"><rect x="0" y="0" width="700" height="450" style="fill: rgb(255, 255, 255); fill-opacity: 1;"/><defs id="defs-3b353b"><g class="clips"><clipPath id="clip3b353bxyplot" class="plotclip"><rect width="531" height="330"/></clipPath><clipPath class="axesclip" id="clip3b353bx"><rect x="60" y="0" width="531" height="450"/></clipPath><clipPath class="axesclip" id="clip3b353by"><rect x="0" y="60" width="700" height="330"/></clipPath><clipPath class="axesclip" id="clip3b353bxy"><rect x="60" y="60" width="531" height="330"/></clipPath></g><g class="gradients"/></defs><g class="bglayer"/><g class="layer-below"><g class="imagelayer"/><g class="shapelayer"/></g><g class="cartesianlayer"><g class="subplot xy"><g class="layer-subplot"><g class="shapelayer"/><g class="imagelayer"/></g><g class="gridlayer"><g class="x"><path class="xgrid crisp" transform="translate(108.97,0)" d="M0,60v330" style="stroke: rgb(238, 238, 238); stroke-opacity: 1; stroke-width: 1px;"/><path class="xgrid crisp" transform="translate(216.74,0)" d="M0,60v330" style="stroke: rgb(238, 238, 238); stroke-opacity: 1; stroke-width: 1px;"/><path class="xgrid crisp" transform="translate(324.52,0)" d="M0,60v330" style="stroke: rgb(238, 238, 238); stroke-opacity: 1; stroke-width: 1px;"/><path class="xgrid crisp" transform="translate(432.29,0)" d="M0,60v330" style="stroke: rgb(238, 238, 238); stroke-opacity: 1; stroke-width: 1px;"/><path class="xgrid crisp" transform="translate(540.06,0)" d="M0,60v330" style="stroke: rgb(238, 238, 238); stroke-opacity: 1; stroke-width: 1px;"/></g><g class="y"><path class="ygrid crisp" transform="translate(0,320.66)" d="M60,0h531" style="stroke: rgb(238, 238, 238); stroke-opacity: 1; stroke-width: 1px;"/><path class="ygrid crisp" transform="translate(0,267.38)" d="M60,0h531" style="stroke: rgb(238, 238, 238); stroke-opacity: 1; stroke-width: 1px;"/><path class="ygrid crisp" transform="translate(0,214.1)" d="M60,0h531" style="stroke: rgb(238, 238, 238); stroke-opacity: 1; stroke-width: 1px;"/><path class="ygrid crisp" transform="translate(0,160.82)" d="M60,0h531" style="stroke: rgb(238, 238, 238); stroke-opacity: 1; stroke-width: 1px;"/><path class="ygrid crisp" transform="translate(0,107.53999999999999)" d="M60,0h531" style="stroke: rgb(238, 238, 238); stroke-opacity: 1; stroke-width: 1px;"/></g></g><g class="zerolinelayer"><path class="yzl zl crisp" transform="translate(0,373.94)" d="M60,0h531" style="stroke: rgb(68, 68, 68); stroke-opacity: 1; stroke-width: 1px;"/></g><path class="xlines-below"/><path class="ylines-below"/><g class="overlines-below"/><g class="xaxislayer-below"/><g class="yaxislayer-below"/><g class="overaxes-below"/><g class="plot" transform="translate(60, 60)" clip-path="url('#clip3b353bxyplot')"><g class="scatterlayer mlayer"><g class="trace scatter trace179557" style="stroke-miterlimit: 2; opacity: 1;"><g class="fills"/><g class="errorbars"/><g class="lines"><path class="js-line" style="vector-effect: non-scaling-stroke; fill: none; stroke: rgb(31, 119, 180); stroke-opacity: 1; stroke-width: 2px; opacity: 1;" d="M0,245.08L4.92,272.88L9.83,279.21L14.75,284L19.67,286.41L24.58,269.01L29.5,270.77L34.42,282.98L39.33,252.83L44.25,273.59L49.17,290.76L54.08,267.49L59,264.47L63.92,237.51L68.83,260.63L73.75,262.86L78.67,259.18L83.58,282.13L88.5,294.74L93.42,277.66L98.33,278.48L103.25,273.13L108.17,270.38L113.08,278.31L118,289.4L122.92,269.7L127.83,284.55L132.75,293.63L137.67,272.92L142.58,245.86L147.5,277.29L152.42,282.53L157.33,281.32L162.25,279.82L167.17,257.69L172.08,287.16L177,279.93L181.92,283.85L186.83,249.53L191.75,277.86L196.67,262.65L201.58,280.42L206.5,262.1L211.42,279.56L216.33,275.49L221.25,281.49L226.17,280.29L231.08,277.8L236,260.75L240.92,273.32L245.83,275.77L250.75,267.52L255.67,270.88L260.58,262.88L265.5,272.99L270.42,276.84L275.33,285.53L280.25,267.79L285.17,273.26L290.08,276.95L295,279.09L299.92,281.09L304.83,258.92L309.75,286.99L314.67,286.57L319.58,281.83L324.5,282.14L329.42,290.2L334.33,248.78L339.25,278.71L344.17,267.84L349.08,274.65L354,269.93L358.92,277.07L363.83,273.91L368.75,282.64L373.67,277.41L378.58,283.05L383.5,274.53L388.42,261.66L393.33,281.63L398.25,268.17L403.17,261.06L408.08,251.34L413,248.05L417.92,271.11L422.83,264.62L427.75,293.4L432.67,274.09L437.58,266.26L442.5,278.91L447.42,283.88L452.33,295.86L457.25,275.3L462.17,274.31L467.08,267.76L472,276.23L476.92,287.3L481.83,230.74L486.75,293.08L491.67,288.83L496.58,228.93L501.5,276.44L506.42,272.44L511.33,271.47L516.25,273.03L521.17,283.2L526.08,273.36L531,270.64"/></g><g class="points"/><g class="text"/></g><g class="trace scatter trace14b955" style="stroke-miterlimit: 2; opacity: 1;"><g class="fills"/><g class="errorbars"/><g class="lines"><path class="js-line" style="vector-effect: non-scaling-stroke; fill: none; stroke: rgb(255, 127, 14); stroke-opacity: 1; stroke-width: 2px; opacity: 1;" d="M0,131.95L4.92,84.75L9.83,136.97L14.75,122.17L19.67,151.75L24.58,181.04L29.5,158.11L34.42,120.88L39.33,16.5L44.25,147.91L49.17,136.33L54.08,137.67L59,115.72L63.92,64.69L68.83,72.58L73.75,84.97L78.67,122.83L88.5,176.24L93.42,153.76L98.33,94.92L103.25,123.81L108.17,118.63L113.08,139.91L118,152.56L122.92,128.06L127.83,115.38L132.75,153.33L137.67,102.53L142.58,65.53L147.5,99.09L152.42,151.45L157.33,128.78L162.25,137.53L167.17,164.16L172.08,178.09L177,96.36L181.92,109.86L186.83,122.33L191.75,111.55L196.67,110.19L201.58,135.75L206.5,165.5L211.42,127.28L216.33,151.91L221.25,135.66L226.17,132.48L231.08,85.59L236,127.69L240.92,118.42L245.83,94.47L250.75,122.39L255.67,121.13L260.58,117.19L265.5,107.06L270.42,141.34L275.33,49.79L280.25,137.76L285.17,91.85L290.08,131.09L299.92,126.07L304.83,103.17L309.75,166.3L314.67,129.15L319.58,150.2L324.5,129.98L329.42,120.93L334.33,61.75L339.25,85.84L344.17,145.33L349.08,155.52L354,137.92L358.92,101.1L363.83,160.76L368.75,149.73L373.67,126.21L378.58,110.73L383.5,132.36L388.42,41.86L393.33,145.36L403.17,118.02L408.08,137.4L413,128.37L417.92,139.49L422.83,139.56L427.75,145.87L432.67,152.71L437.58,145.63L442.5,122.14L447.42,139.46L452.33,126.42L457.25,192.44L467.08,92.72L472,67.75L476.92,158.3L481.83,132.69L486.75,169.11L491.67,142.98L496.58,124.47L501.5,85.65L506.42,166.12L511.33,134.04L516.25,118.34L521.17,122.41L526.08,166.3L531,175.82"/></g><g class="points"/><g class="text"/></g><g class="trace scatter trace204a08" style="stroke-miterlimit: 2; opacity: 1;"><g class="fills"/><g class="errorbars"/><g class="lines"><path class="js-line" style="vector-effect: non-scaling-stroke; fill: none; stroke: rgb(44, 160, 44); stroke-opacity: 1; stroke-width: 2px; opacity: 1;" d="M0,313.01L4.92,303.55L9.83,281.54L14.75,303.95L19.67,296.75L24.58,294.91L29.5,310.84L34.42,296.36L39.33,305.64L44.25,279.13L49.17,301.72L54.08,313.18L59,303.49L63.92,313.27L68.83,308.43L73.75,286.35L78.67,310.17L83.58,210.38L88.5,295.63L93.42,278.09L98.33,291.67L103.25,292.28L108.17,309.45L113.08,305.59L118,285.9L127.83,306.72L132.75,279.44L137.67,305.24L142.58,308.78L147.5,311.96L152.42,300.96L157.33,291.68L162.25,291.31L167.17,307.22L172.08,302.63L177,306.15L181.92,275.11L186.83,308L191.75,271.12L196.67,312.39L201.58,282.49L206.5,312.17L211.42,295.32L221.25,306.49L226.17,303.08L231.08,310.58L236,308.45L240.92,307.82L245.83,313.02L250.75,310.48L255.67,246.69L260.58,297.42L265.5,287.98L270.42,296.96L275.33,302.52L280.25,306.71L285.17,271.45L290.08,304.42L295,308.77L299.92,300.38L304.83,311.31L309.75,301.95L314.67,302.12L319.58,305.77L324.5,303.68L329.42,291.77L334.33,301.09L339.25,303.98L344.17,304.16L349.08,306.73L354,310.47L358.92,310.52L363.83,305.05L368.75,301.76L373.67,295.52L378.58,295.67L383.5,307.37L388.42,309.16L393.33,302.45L398.25,307.06L403.17,297.39L408.08,312.67L413,312.8L417.92,310.33L422.83,304.95L427.75,300.05L432.67,287.06L437.58,312.52L442.5,285.87L447.42,280.26L452.33,288.87L457.25,300.04L462.17,305.91L467.08,310.23L472,298.58L481.83,313.5L486.75,293.42L491.67,296.91L496.58,311.88L501.5,308.98L506.42,311.55L511.33,305.3L516.25,306.72L521.17,285.24L526.08,303.45L531,277.4"/></g><g class="points"/><g class="text"/></g><g class="trace scatter trace294e8a" style="stroke-miterlimit: 2; opacity: 1;"><g class="fills"/><g class="errorbars"/><g class="lines"><path class="js-line" style="vector-effect: non-scaling-stroke; fill: none; stroke: rgb(214, 39, 40); stroke-opacity: 1; stroke-width: 2px; opacity: 1;" d="M0,306.54L4.92,306.33L9.83,309.46L14.75,302.7L19.67,307.28L29.5,275.01L34.42,307.11L39.33,277.36L44.25,310.07L49.17,301.55L54.08,303.57L59,310.17L63.92,308.78L68.83,308.73L73.75,312.4L78.67,278.61L83.58,311.46L88.5,295.11L93.42,310.95L98.33,304.57L103.25,308.42L108.17,298.64L113.08,308.04L118,302.56L122.92,311.12L127.83,298.51L132.75,308.23L137.67,298.9L142.58,277.69L147.5,275.53L152.42,301.47L157.33,309.21L162.25,304.97L167.17,304.3L172.08,295L177,292.55L181.92,308.74L186.83,300.45L191.75,311.54L196.67,304.12L201.58,310.17L206.5,278.38L211.42,306.03L216.33,307.54L221.25,299.55L226.17,306.13L231.08,292.35L236,299.47L240.92,304.48L245.83,252.63L250.75,293.08L255.67,311.77L260.58,307.37L265.5,310.47L270.42,306.36L275.33,302.87L280.25,302.12L285.17,310.82L290.08,299.21L295,299.37L299.92,306.93L304.83,300.45L309.75,301.88L319.58,304.15L324.5,300.63L329.42,303.33L334.33,310.82L339.25,292.83L344.17,305.06L349.08,305.67L354,291.44L358.92,288.59L363.83,297.06L368.75,304.31L373.67,306.22L378.58,306.64L383.5,287.44L388.42,302.71L393.33,301.85L398.25,300.06L403.17,309.84L408.08,277.27L413,309.05L417.92,289.59L422.83,303.45L427.75,297.04L432.67,312.17L437.58,305.76L442.5,309.89L447.42,305.9L452.33,299.46L457.25,297.23L462.17,298.53L467.08,292.55L472,308.55L476.92,300.18L481.83,311.09L486.75,306.1L491.67,304.48L496.58,311.75L501.5,301.05L506.42,294.77L511.33,302.37L521.17,309.92L526.08,297.31L531,311.31"/></g><g class="points"/><g class="text"/></g></g></g><g class="overplot"/><path class="xlines-above crisp" style="fill: none;" d="M0,0"/><path class="ylines-above crisp" style="fill: none;" d="M0,0"/><g class="overlines-above"/><g class="xaxislayer-above"><g class="xtick"><text text-anchor="middle" x="0" y="403" style="font-family: TOBESTRIPPEDOpen SansTOBESTRIPPED, verdana, arial, sans-serif; font-size: 12px; fill: rgb(68, 68, 68); fill-opacity: 1; white-space: pre;" transform="translate(108.97,0)">2</text></g><g class="xtick"><text text-anchor="middle" x="0" y="403" style="font-family: TOBESTRIPPEDOpen SansTOBESTRIPPED, verdana, arial, sans-serif; font-size: 12px; fill: rgb(68, 68, 68); fill-opacity: 1; white-space: pre;" transform="translate(216.74,0)">4</text></g><g class="xtick"><text text-anchor="middle" x="0" y="403" style="font-family: TOBESTRIPPEDOpen SansTOBESTRIPPED, verdana, arial, sans-serif; font-size: 12px; fill: rgb(68, 68, 68); fill-opacity: 1; white-space: pre;" transform="translate(324.52,0)">6</text></g><g class="xtick"><text text-anchor="middle" x="0" y="403" style="font-family: TOBESTRIPPEDOpen SansTOBESTRIPPED, verdana, arial, sans-serif; font-size: 12px; fill: rgb(68, 68, 68); fill-opacity: 1; white-space: pre;" transform="translate(432.29,0)">8</text></g><g class="xtick"><text text-anchor="middle" x="0" y="403" style="font-family: TOBESTRIPPEDOpen SansTOBESTRIPPED, verdana, arial, sans-serif; font-size: 12px; fill: rgb(68, 68, 68); fill-opacity: 1; white-space: pre;" transform="translate(540.06,0)">10</text></g></g><g class="yaxislayer-above"><g class="ytick"><text text-anchor="end" x="59" y="4.199999999999999" style="font-family: TOBESTRIPPEDOpen SansTOBESTRIPPED, verdana, arial, sans-serif; font-size: 12px; fill: rgb(68, 68, 68); fill-opacity: 1; white-space: pre;" transform="translate(0,373.94)">0</text></g><g class="ytick"><text text-anchor="end" x="59" y="4.199999999999999" style="font-family: TOBESTRIPPEDOpen SansTOBESTRIPPED, verdana, arial, sans-serif; font-size: 12px; fill: rgb(68, 68, 68); fill-opacity: 1; white-space: pre;" transform="translate(0,320.66)">2</text></g><g class="ytick"><text text-anchor="end" x="59" y="4.199999999999999" style="font-family: TOBESTRIPPEDOpen SansTOBESTRIPPED, verdana, arial, sans-serif; font-size: 12px; fill: rgb(68, 68, 68); fill-opacity: 1; white-space: pre;" transform="translate(0,267.38)">4</text></g><g class="ytick"><text text-anchor="end" x="59" y="4.199999999999999" style="font-family: TOBESTRIPPEDOpen SansTOBESTRIPPED, verdana, arial, sans-serif; font-size: 12px; fill: rgb(68, 68, 68); fill-opacity: 1; white-space: pre;" transform="translate(0,214.1)">6</text></g><g class="ytick"><text text-anchor="end" x="59" y="4.199999999999999" style="font-family: TOBESTRIPPEDOpen SansTOBESTRIPPED, verdana, arial, sans-serif; font-size: 12px; fill: rgb(68, 68, 68); fill-opacity: 1; white-space: pre;" transform="translate(0,160.82)">8</text></g><g class="ytick"><text text-anchor="end" x="59" y="4.199999999999999" style="font-family: TOBESTRIPPEDOpen SansTOBESTRIPPED, verdana, arial, sans-serif; font-size: 12px; fill: rgb(68, 68, 68); fill-opacity: 1; white-space: pre;" transform="translate(0,107.53999999999999)">10</text></g></g><g class="overaxes-above"/></g></g><g class="polarlayer"/><g class="ternarylayer"/><g class="geolayer"/><g class="funnelarealayer"/><g class="pielayer"/><g class="treemaplayer"/><g class="sunburstlayer"/><g class="glimages"/><defs id="topdefs-3b353b"><g class="clips"/><clipPath id="legend3b353b"><rect width="86" height="86" x="0" y="0"/></clipPath></defs><g class="layer-above"><g class="imagelayer"/><g class="shapelayer"/></g><g class="infolayer"><g class="legend" pointer-events="all" transform="translate(601.62, 60)"><rect class="bg" shape-rendering="crispEdges" style="stroke: rgb(68, 68, 68); stroke-opacity: 1; fill: rgb(255, 255, 255); fill-opacity: 1; stroke-width: 0px;" width="86" height="86" x="0" y="0"/><g class="scrollbox" transform="translate(0, 0)" clip-path="url('#legend3b353b')"><g class="groups"><g class="traces" style="opacity: 1;" transform="translate(0, 14.5)"><text class="legendtext user-select-none" text-anchor="start" style="font-family: TOBESTRIPPEDOpen SansTOBESTRIPPED, verdana, arial, sans-serif; font-size: 12px; fill: rgb(68, 68, 68); fill-opacity: 1; white-space: pre;" x="40" y="4.680000000000001">G_GAN</text><g class="layers" style="opacity: 1;"><g class="legendfill"/><g class="legendlines"><path class="js-line" d="M5,0h30" style="fill: none; stroke: rgb(31, 119, 180); stroke-opacity: 1; stroke-width: 2px;"/></g><g class="legendsymbols"><g class="legendpoints"/></g></g><rect class="legendtoggle" style="cursor: pointer; fill: rgb(0, 0, 0); fill-opacity: 0;" pointer-events="all" x="0" y="-9.5" width="80.18333435058594" height="19"/></g><g class="traces" style="opacity: 1;" transform="translate(0, 33.5)"><text class="legendtext user-select-none" text-anchor="start" style="font-family: TOBESTRIPPEDOpen SansTOBESTRIPPED, verdana, arial, sans-serif; font-size: 12px; fill: rgb(68, 68, 68); fill-opacity: 1; white-space: pre;" x="40" y="4.680000000000001">G_L1</text><g class="layers" style="opacity: 1;"><g class="legendfill"/><g class="legendlines"><path class="js-line" d="M5,0h30" style="fill: none; stroke: rgb(255, 127, 14); stroke-opacity: 1; stroke-width: 2px;"/></g><g class="legendsymbols"><g class="legendpoints"/></g></g><rect class="legendtoggle" style="cursor: pointer; fill: rgb(0, 0, 0); fill-opacity: 0;" pointer-events="all" x="0" y="-9.5" width="80.18333435058594" height="19"/></g><g class="traces" style="opacity: 1;" transform="translate(0, 52.5)"><text class="legendtext user-select-none" text-anchor="start" style="font-family: TOBESTRIPPEDOpen SansTOBESTRIPPED, verdana, arial, sans-serif; font-size: 12px; fill: rgb(68, 68, 68); fill-opacity: 1; white-space: pre;" x="40" y="4.680000000000001">D_real</text><g class="layers" style="opacity: 1;"><g class="legendfill"/><g class="legendlines"><path class="js-line" d="M5,0h30" style="fill: none; stroke: rgb(44, 160, 44); stroke-opacity: 1; stroke-width: 2px;"/></g><g class="legendsymbols"><g class="legendpoints"/></g></g><rect class="legendtoggle" style="cursor: pointer; fill: rgb(0, 0, 0); fill-opacity: 0;" pointer-events="all" x="0" y="-9.5" width="80.18333435058594" height="19"/></g><g class="traces" style="opacity: 1;" transform="translate(0, 71.5)"><text class="legendtext user-select-none" text-anchor="start" style="font-family: TOBESTRIPPEDOpen SansTOBESTRIPPED, verdana, arial, sans-serif; font-size: 12px; fill: rgb(68, 68, 68); fill-opacity: 1; white-space: pre;" x="40" y="4.680000000000001">D_fake</text><g class="layers" style="opacity: 1;"><g class="legendfill"/><g class="legendlines"><path class="js-line" d="M5,0h30" style="fill: none; stroke: rgb(214, 39, 40); stroke-opacity: 1; stroke-width: 2px;"/></g><g class="legendsymbols"><g class="legendpoints"/></g></g><rect class="legendtoggle" style="cursor: pointer; fill: rgb(0, 0, 0); fill-opacity: 0;" pointer-events="all" x="0" y="-9.5" width="80.18333435058594" height="19"/></g></g></g><rect class="scrollbar" rx="20" ry="3" width="0" height="0" style="fill: rgb(128, 139, 164); fill-opacity: 1;" x="0" y="0"/></g><g class="g-gtitle"><text class="gtitle" style="font-family: TOBESTRIPPEDOpen SansTOBESTRIPPED, verdana, arial, sans-serif; font-size: 17px; fill: rgb(68, 68, 68); opacity: 1; font-weight: normal; white-space: pre;" x="350" y="30" text-anchor="middle" dy="0em">sat2map_pix2pix_resnet6blocks loss over time</text></g><g class="g-xtitle"><text class="xtitle" style="font-family: TOBESTRIPPEDOpen SansTOBESTRIPPED, verdana, arial, sans-serif; font-size: 14px; fill: rgb(68, 68, 68); opacity: 1; font-weight: normal; white-space: pre;" x="325.5" y="442" text-anchor="middle">epoch</text></g><g class="g-ytitle"><text class="ytitle" transform="rotate(-90,22,225)" style="font-family: TOBESTRIPPEDOpen SansTOBESTRIPPED, verdana, arial, sans-serif; font-size: 14px; fill: rgb(68, 68, 68); opacity: 1; font-weight: normal; white-space: pre;" x="22" y="225" text-anchor="middle">loss</text></g></g></svg>